<svg width="256" height="256" viewBox="0 0 256 256" fill="none" xmlns="http://www.w3.org/2000/svg">
<path fill-rule="evenodd" clip-rule="evenodd" d="M128 64C128 91.628 110.494 115.167 85.9688 124.13L85.9939 76.243C86.0104 75.9715 86.0058 75.8056 86.0004 75.6087V75.6085L86.0003 75.6078C85.9973 75.4969 85.9939 75.376 85.9939 75.2208V62.9547C85.9939 51.3817 76.5933 42 64.997 42C53.4007 42 44 51.3817 44 62.9547V124.813C18.4485 116.415 0 92.3618 0 64C0 28.6538 28.6538 0 64 0C99.3462 0 128 28.6538 128 64ZM128 64V106C128 118.15 137.85 128 150 128H170.926L171.006 67.5545C171.006 67.3634 170.998 67.1668 170.99 66.969C170.974 66.57 170.958 66.1663 171.006 65.7938V62.9547C171.006 51.3817 180.407 42 192.003 42C203.599 42 213 51.3817 213 62.9547V128H234C246.15 128 256 118.15 256 106V22C256 9.84974 246.15 0 234 0H150C137.85 0 128 9.84974 128 22V64ZM192 256C170.113 256 150.793 245.014 139.252 228.255C180.462 222.768 213 187.645 213 145.135V131.525C238.031 140.216 256 164.01 256 192C256 227.346 227.346 256 192 256ZM128 192C128 164.039 145.931 140.266 170.922 131.552L170.897 150.008C170.897 173.43 151.882 192.417 128.426 192.417C128.284 192.417 128.143 192.416 128.001 192.415C128.001 192.346 128.001 192.277 128 192.207C128 192.138 128 192.069 128 192ZM128 192V192.415C104.74 192.187 85.9551 173.288 85.9551 150.008L85.9667 128H106C118.15 128 128 137.85 128 150V192ZM44 128H22C9.84974 128 0 137.85 0 150V234C0 246.15 9.84974 256 22 256H106C118.15 256 128 246.15 128 234V229H127.988C81.6027 229 44 191.452 44 145.135V128Z" fill="url(#paint0_linear)"/>
<defs>
<linearGradient id="paint0_linear" x1="128" y1="0" x2="128" y2="256" gradientUnits="userSpaceOnUse">
<stop stop-color="#18ACFE"/>
<stop offset="1" stop-color="#106EE2"/>
</linearGradient>
</defs>
</svg>
